<?xml version="1.0" encoding="UTF-8" standalone="no"?>
<svg
   xmlns:dc="http://purl.org/dc/elements/1.1/"
   xmlns:cc="http://creativecommons.org/ns#"
   xmlns:rdf="http://www.w3.org/1999/02/22-rdf-syntax-ns#"
   xmlns:svg="http://www.w3.org/2000/svg"
   xmlns="http://www.w3.org/2000/svg"
   xmlns:sodipodi="http://sodipodi.sourceforge.net/DTD/sodipodi-0.dtd"
   xmlns:inkscape="http://www.inkscape.org/namespaces/inkscape"
   version="1.1"
   id="svg2"
   xml:space="preserve"
   width="113.33333"
   height="39.333332"
   viewBox="0 0 113.33333 39.333332"
   sodipodi:docname="Apple Gadgets Ltd TM 85x29.49.ai"><metadata
     id="metadata8"><rdf:RDF><cc:Work
         rdf:about=""><dc:format>image/svg+xml</dc:format><dc:type
           rdf:resource="http://purl.org/dc/dcmitype/StillImage" /></cc:Work></rdf:RDF></metadata><defs
     id="defs6"><clipPath
       clipPathUnits="userSpaceOnUse"
       id="clipPath18"><path
         d="M 0,29.5 H 85 V 0 H 0 Z"
         id="path16" /></clipPath></defs><sodipodi:namedview
     pagecolor="#ffffff"
     bordercolor="#666666"
     borderopacity="1"
     objecttolerance="10"
     gridtolerance="10"
     guidetolerance="10"
     inkscape:pageopacity="0"
     inkscape:pageshadow="2"
     inkscape:window-width="640"
     inkscape:window-height="480"
     id="namedview4" /><g
     id="g10"
     inkscape:groupmode="layer"
     inkscape:label="Apple Gadgets Ltd TM 85x29.49"
     transform="matrix(1.3333333,0,0,-1.3333333,0,39.333333)"><g
       id="g12"><g
         id="g14"
         clip-path="url(#clipPath18)"><g
           id="g20"
           transform="translate(78.6709,4.1084)"><path
             d="M 0,0 C 0.058,-0.032 0.143,-0.065 0.254,-0.099 0.367,-0.133 0.52,-0.173 0.713,-0.219 0.899,-0.262 1.062,-0.308 1.2,-0.356 1.339,-0.404 1.453,-0.463 1.544,-0.532 1.634,-0.602 1.701,-0.686 1.745,-0.785 1.789,-0.884 1.812,-1.007 1.812,-1.154 1.812,-1.291 1.782,-1.42 1.725,-1.539 1.666,-1.659 1.584,-1.762 1.477,-1.849 1.369,-1.936 1.24,-2.004 1.088,-2.055 0.937,-2.104 0.766,-2.13 0.577,-2.13 c -0.84,0 -1.282,0.331 -1.329,0.992 h 0.555 c 0.002,-0.373 0.258,-0.558 0.767,-0.558 0.114,0 0.214,0.011 0.301,0.036 0.087,0.024 0.16,0.057 0.217,0.101 0.058,0.045 0.102,0.096 0.132,0.157 0.032,0.059 0.047,0.125 0.047,0.195 0,0.073 -0.012,0.133 -0.036,0.178 C 1.209,-0.984 1.165,-0.945 1.1,-0.91 1.034,-0.876 0.944,-0.843 0.827,-0.811 0.711,-0.777 0.56,-0.735 0.373,-0.687 0.189,-0.64 0.033,-0.596 -0.1,-0.551 c -0.131,0.044 -0.24,0.098 -0.325,0.163 -0.085,0.065 -0.148,0.145 -0.188,0.239 -0.042,0.094 -0.062,0.213 -0.062,0.357 0,0.127 0.027,0.243 0.08,0.35 0.053,0.108 0.13,0.203 0.229,0.282 0.1,0.079 0.221,0.141 0.362,0.186 0.143,0.045 0.301,0.067 0.478,0.067 0.809,0 1.221,-0.286 1.232,-0.86 H 1.166 C 1.146,0.521 0.93,0.663 0.514,0.663 0.422,0.663 0.336,0.654 0.259,0.637 0.179,0.619 0.111,0.594 0.053,0.558 -0.005,0.524 -0.05,0.481 -0.082,0.429 -0.115,0.379 -0.132,0.32 -0.132,0.256 c 0,-0.062 0.009,-0.11 0.024,-0.15 C -0.092,0.067 -0.055,0.032 0,0 m -3.293,-1.437 c 0.013,-0.064 0.033,-0.114 0.059,-0.148 0.027,-0.034 0.058,-0.057 0.095,-0.067 0.037,-0.01 0.078,-0.016 0.124,-0.016 0.048,0 0.096,0.002 0.141,0.007 0.047,0.003 0.092,0.009 0.133,0.015 v -0.412 c -0.115,-0.027 -0.246,-0.041 -0.394,-0.041 -0.164,0 -0.293,0.021 -0.388,0.061 -0.096,0.039 -0.168,0.099 -0.218,0.177 -0.051,0.078 -0.083,0.176 -0.099,0.295 -0.014,0.118 -0.022,0.255 -0.022,0.412 v 1.749 h -0.381 v 0.424 h 0.381 v 0.765 h 0.549 V 1.019 h 0.502 V 0.595 h -0.502 v -1.774 c 0,-0.108 0.006,-0.194 0.02,-0.258 M -6.997,0.166 C -7.048,0.275 -7.11,0.368 -7.186,0.44 -7.262,0.514 -7.348,0.569 -7.444,0.607 -7.541,0.645 -7.645,0.663 -7.756,0.663 -7.866,0.663 -7.97,0.646 -8.065,0.61 -8.161,0.575 -8.247,0.521 -8.322,0.447 -8.398,0.374 -8.462,0.281 -8.515,0.17 -8.566,0.06 -8.604,-0.07 -8.624,-0.219 h 1.737 c -0.022,0.148 -0.059,0.276 -0.11,0.385 m -1.634,-0.813 c 0.013,-0.179 0.044,-0.334 0.097,-0.466 0.051,-0.131 0.117,-0.241 0.199,-0.326 0.082,-0.085 0.177,-0.151 0.286,-0.193 0.108,-0.043 0.224,-0.064 0.35,-0.064 0.09,0 0.18,0.011 0.271,0.036 0.09,0.024 0.171,0.06 0.243,0.106 0.073,0.047 0.132,0.106 0.177,0.176 0.045,0.07 0.069,0.149 0.071,0.24 h 0.576 C -6.385,-1.297 -6.435,-1.437 -6.511,-1.562 -6.587,-1.685 -6.685,-1.788 -6.802,-1.872 -6.92,-1.956 -7.055,-2.02 -7.208,-2.063 -7.36,-2.108 -7.525,-2.13 -7.699,-2.13 c -0.225,0 -0.429,0.037 -0.614,0.109 -0.184,0.072 -0.343,0.177 -0.474,0.316 -0.133,0.138 -0.235,0.306 -0.308,0.506 -0.073,0.2 -0.108,0.428 -0.108,0.682 0,0.251 0.035,0.476 0.105,0.675 0.071,0.199 0.169,0.367 0.296,0.505 0.129,0.139 0.282,0.245 0.459,0.319 0.178,0.075 0.373,0.111 0.587,0.111 0.223,0 0.423,-0.035 0.602,-0.11 0.178,-0.073 0.331,-0.178 0.456,-0.316 0.125,-0.139 0.222,-0.308 0.29,-0.506 0.067,-0.198 0.1,-0.424 0.1,-0.678 v -0.13 z m -3.487,0.937 c -0.246,0.249 -0.519,0.373 -0.817,0.373 -0.116,0 -0.222,-0.024 -0.316,-0.074 -0.096,-0.051 -0.176,-0.126 -0.243,-0.227 -0.068,-0.099 -0.119,-0.225 -0.155,-0.376 -0.038,-0.15 -0.056,-0.327 -0.056,-0.527 0,-0.379 0.067,-0.667 0.199,-0.861 0.132,-0.196 0.315,-0.294 0.55,-0.294 0.15,0 0.297,0.044 0.438,0.13 0.14,0.087 0.274,0.219 0.4,0.4 z m -0.797,-3.593 c -0.193,0 -0.367,0.022 -0.523,0.064 -0.155,0.044 -0.286,0.104 -0.395,0.186 -0.108,0.079 -0.19,0.178 -0.249,0.294 -0.06,0.116 -0.088,0.247 -0.088,0.394 h 0.569 c 0,-0.338 0.224,-0.508 0.67,-0.508 0.131,0 0.245,0.016 0.347,0.047 0.1,0.032 0.185,0.086 0.255,0.165 0.069,0.078 0.12,0.183 0.157,0.317 0.035,0.132 0.054,0.301 0.054,0.506 v 0.147 C -12.37,-1.982 -12.664,-2.13 -13,-2.13 c -0.205,0 -0.388,0.038 -0.546,0.113 -0.159,0.076 -0.292,0.183 -0.398,0.322 -0.108,0.139 -0.189,0.306 -0.244,0.503 -0.056,0.195 -0.083,0.413 -0.083,0.651 0,0.253 0.034,0.479 0.101,0.682 0.066,0.202 0.157,0.374 0.274,0.515 0.117,0.141 0.254,0.25 0.413,0.325 0.159,0.075 0.33,0.112 0.514,0.112 0.329,0 0.613,-0.104 0.851,-0.31 v 0.236 h 0.547 v -2.834 c 0,-0.993 -0.449,-1.488 -1.344,-1.488 m -4.272,3.593 c -0.246,0.249 -0.516,0.373 -0.815,0.373 -0.118,0 -0.224,-0.024 -0.317,-0.074 -0.094,-0.051 -0.176,-0.126 -0.243,-0.227 -0.068,-0.099 -0.12,-0.225 -0.156,-0.376 -0.037,-0.15 -0.054,-0.327 -0.054,-0.527 0,-0.379 0.065,-0.667 0.198,-0.861 0.132,-0.196 0.315,-0.294 0.551,-0.294 0.151,0 0.296,0.044 0.436,0.13 0.141,0.087 0.275,0.219 0.4,0.4 z m 0,-2.345 v 0.364 c -0.251,-0.291 -0.546,-0.439 -0.881,-0.439 -0.205,0 -0.387,0.038 -0.546,0.113 -0.158,0.076 -0.29,0.183 -0.398,0.322 -0.107,0.139 -0.188,0.306 -0.245,0.503 -0.055,0.195 -0.083,0.413 -0.083,0.651 0,0.253 0.034,0.479 0.101,0.682 0.067,0.202 0.159,0.374 0.276,0.515 0.116,0.141 0.254,0.25 0.411,0.325 0.159,0.075 0.331,0.112 0.515,0.112 0.331,0 0.613,-0.104 0.85,-0.31 v 1.409 h 0.547 v -4.247 z m -5.068,1.492 h -0.381 c -0.796,0 -1.192,-0.216 -1.192,-0.647 0,-0.157 0.058,-0.277 0.178,-0.361 0.119,-0.084 0.275,-0.125 0.469,-0.125 0.091,0 0.181,0.01 0.271,0.031 0.089,0.02 0.174,0.051 0.253,0.09 0.082,0.038 0.156,0.086 0.224,0.14 0.069,0.056 0.128,0.119 0.178,0.187 z m 0,-1.492 v 0.312 c -0.287,-0.258 -0.648,-0.387 -1.082,-0.387 -0.149,0 -0.287,0.022 -0.414,0.065 -0.128,0.043 -0.238,0.103 -0.332,0.18 -0.095,0.077 -0.169,0.171 -0.223,0.28 -0.052,0.108 -0.08,0.229 -0.08,0.363 0,0.721 0.62,1.08 1.861,1.08 h 0.27 c 0,0.132 -0.005,0.249 -0.012,0.352 -0.009,0.103 -0.036,0.189 -0.082,0.259 -0.046,0.071 -0.121,0.122 -0.221,0.16 -0.1,0.036 -0.242,0.054 -0.424,0.054 -0.486,0 -0.739,-0.175 -0.756,-0.523 h -0.553 c 0.038,0.635 0.486,0.953 1.34,0.953 0.193,0 0.367,-0.016 0.524,-0.049 0.154,-0.035 0.286,-0.094 0.394,-0.184 0.108,-0.088 0.191,-0.206 0.25,-0.356 0.059,-0.15 0.088,-0.343 0.088,-0.575 v -1.984 z m -6.17,1.66 v 0.51 h 1.675 v -2.17 h -0.406 l -0.144,0.447 c -0.295,-0.348 -0.751,-0.522 -1.367,-0.522 -0.309,0 -0.589,0.053 -0.842,0.159 -0.253,0.106 -0.469,0.254 -0.65,0.447 -0.18,0.192 -0.32,0.424 -0.419,0.696 -0.098,0.27 -0.147,0.571 -0.147,0.901 0,0.335 0.049,0.638 0.15,0.908 0.098,0.269 0.239,0.499 0.418,0.69 0.179,0.19 0.394,0.337 0.643,0.441 0.25,0.104 0.527,0.156 0.828,0.156 0.254,0 0.49,-0.033 0.707,-0.097 0.217,-0.066 0.408,-0.157 0.572,-0.275 0.163,-0.119 0.295,-0.261 0.395,-0.43 0.102,-0.169 0.161,-0.357 0.18,-0.565 h -0.585 c -0.011,0.139 -0.048,0.263 -0.111,0.371 -0.065,0.11 -0.152,0.202 -0.26,0.277 -0.109,0.075 -0.239,0.133 -0.389,0.173 -0.15,0.039 -0.316,0.059 -0.5,0.059 -0.218,0 -0.417,-0.038 -0.595,-0.113 -0.18,-0.075 -0.333,-0.185 -0.461,-0.331 -0.128,-0.146 -0.229,-0.324 -0.299,-0.537 -0.072,-0.212 -0.108,-0.454 -0.108,-0.727 0,-0.268 0.036,-0.51 0.108,-0.724 0.07,-0.213 0.171,-0.395 0.3,-0.541 0.129,-0.148 0.283,-0.261 0.462,-0.338 0.18,-0.077 0.378,-0.116 0.596,-0.116 0.314,0 0.583,0.05 0.808,0.151 0.226,0.099 0.414,0.251 0.566,0.451 v 0.649 z m -5.234,0.561 c -0.051,0.109 -0.113,0.202 -0.189,0.274 -0.076,0.074 -0.162,0.129 -0.257,0.167 -0.098,0.038 -0.202,0.056 -0.313,0.056 -0.111,0 -0.214,-0.017 -0.31,-0.053 -0.096,-0.035 -0.181,-0.089 -0.255,-0.163 -0.078,-0.073 -0.141,-0.166 -0.194,-0.277 -0.052,-0.11 -0.089,-0.24 -0.109,-0.389 h 1.737 c -0.022,0.148 -0.06,0.276 -0.11,0.385 m -1.634,-0.813 c 0.013,-0.179 0.044,-0.334 0.097,-0.466 0.05,-0.131 0.117,-0.241 0.199,-0.326 0.082,-0.085 0.177,-0.151 0.284,-0.193 0.109,-0.043 0.226,-0.064 0.352,-0.064 0.09,0 0.18,0.011 0.27,0.036 0.091,0.024 0.172,0.06 0.244,0.106 0.073,0.047 0.131,0.106 0.177,0.176 0.045,0.07 0.067,0.149 0.07,0.24 h 0.576 c -0.023,-0.159 -0.072,-0.299 -0.149,-0.424 -0.076,-0.123 -0.174,-0.226 -0.291,-0.31 -0.118,-0.084 -0.253,-0.148 -0.406,-0.191 -0.152,-0.045 -0.318,-0.067 -0.491,-0.067 -0.225,0 -0.429,0.037 -0.615,0.109 -0.184,0.072 -0.342,0.177 -0.474,0.316 -0.132,0.138 -0.236,0.306 -0.307,0.506 -0.073,0.2 -0.109,0.428 -0.109,0.682 0,0.251 0.035,0.476 0.106,0.675 0.07,0.199 0.168,0.367 0.296,0.505 0.129,0.139 0.281,0.245 0.459,0.319 0.177,0.075 0.373,0.111 0.587,0.111 0.224,0 0.423,-0.035 0.602,-0.11 0.178,-0.073 0.331,-0.178 0.457,-0.316 0.125,-0.139 0.221,-0.308 0.288,-0.506 0.067,-0.198 0.101,-0.424 0.101,-0.678 v -0.13 z m -3.485,2.839 h 0.544 v -4.247 h -0.544 z m -3.137,-1.824 c -0.131,0.197 -0.314,0.295 -0.549,0.295 -0.306,0 -0.585,-0.175 -0.837,-0.526 v -1.46 c 0.239,-0.249 0.511,-0.373 0.816,-0.373 0.115,0 0.22,0.025 0.315,0.077 0.095,0.051 0.176,0.127 0.243,0.226 0.066,0.102 0.117,0.227 0.154,0.378 0.036,0.151 0.054,0.325 0.054,0.524 0,0.377 -0.065,0.663 -0.196,0.859 m 0.667,-1.535 c -0.065,-0.203 -0.157,-0.375 -0.273,-0.517 -0.117,-0.142 -0.255,-0.253 -0.415,-0.329 -0.159,-0.078 -0.332,-0.117 -0.518,-0.117 -0.17,0 -0.325,0.026 -0.464,0.077 -0.141,0.051 -0.268,0.13 -0.383,0.238 v -1.419 h -0.544 v 4.253 h 0.544 V 0.654 c 0.124,0.149 0.259,0.259 0.405,0.331 0.147,0.073 0.306,0.108 0.477,0.108 0.202,0 0.382,-0.037 0.54,-0.112 0.157,-0.075 0.29,-0.182 0.399,-0.322 0.107,-0.138 0.19,-0.305 0.247,-0.501 0.057,-0.194 0.085,-0.411 0.085,-0.649 0,-0.249 -0.033,-0.475 -0.1,-0.676 m -5.734,1.535 c -0.132,0.197 -0.315,0.295 -0.55,0.295 -0.306,0 -0.585,-0.175 -0.837,-0.526 v -1.46 c 0.24,-0.249 0.511,-0.373 0.815,-0.373 0.116,0 0.221,0.025 0.317,0.077 0.095,0.051 0.175,0.127 0.242,0.226 0.066,0.102 0.117,0.227 0.154,0.378 0.036,0.151 0.055,0.325 0.055,0.524 0,0.377 -0.066,0.663 -0.196,0.859 m 0.667,-1.535 c -0.066,-0.203 -0.158,-0.375 -0.273,-0.517 -0.117,-0.142 -0.255,-0.253 -0.415,-0.329 -0.159,-0.078 -0.332,-0.117 -0.52,-0.117 -0.169,0 -0.324,0.026 -0.463,0.077 -0.14,0.051 -0.268,0.13 -0.383,0.238 v -1.419 h -0.545 v 4.253 h 0.545 V 0.654 c 0.124,0.149 0.259,0.259 0.406,0.331 0.148,0.073 0.305,0.108 0.475,0.108 0.204,0 0.384,-0.037 0.541,-0.112 0.158,-0.075 0.291,-0.182 0.399,-0.322 0.108,-0.138 0.191,-0.305 0.247,-0.501 0.057,-0.194 0.085,-0.411 0.085,-0.649 0,-0.249 -0.033,-0.475 -0.099,-0.676 m -6.804,2.819 -0.714,-1.964 h 1.466 z m 1.41,-3.707 -0.494,1.291 h -1.785 l -0.469,-1.291 h -0.595 l 1.634,4.247 h 0.61 l 1.738,-4.247 z"
             style="fill:#ffffff;fill-opacity:1;fill-rule:nonzero;stroke:none"
             id="path22" /></g><g
           id="g24"
           transform="translate(16.8687,2.3535)"><path
             d="m 0,0 c -0.374,-0.338 -0.806,-0.444 -1.256,-0.326 -0.532,0.139 -1.07,0.288 -1.57,0.511 -1.192,0.531 -2.383,0.447 -3.567,0.039 -0.539,-0.186 -1.037,-0.49 -1.556,-0.736 -0.482,-0.229 -0.96,-0.528 -1.524,-0.397 -0.36,0.083 -0.704,0.238 -1.047,0.384 -1.301,0.546 -2.208,1.544 -3.019,2.65 -0.961,1.312 -1.839,2.675 -2.42,4.202 -0.245,0.643 -0.413,1.314 -0.61,1.973 -0.382,1.283 -0.332,2.605 -0.214,3.901 0.079,0.863 0.391,1.72 0.695,2.544 0.4,1.089 1.015,2.074 1.881,2.859 1.836,1.665 3.934,2.207 6.322,1.375 0.574,-0.2 1.148,-0.403 1.727,-0.589 1.205,-0.384 2.377,-0.227 3.545,0.199 2.039,0.744 3.89,0.306 5.58,-0.972 C 3.274,17.385 3.536,17.09 3.817,16.824 3.785,16.784 3.753,16.745 3.721,16.705 3.45,16.884 3.177,17.059 2.907,17.24 1.79,17.991 0.57,18.401 -0.779,18.193 -1.382,18.1 -1.976,17.877 -2.546,17.643 c -1.421,-0.588 -2.849,-0.757 -4.342,-0.279 -0.741,0.239 -1.502,0.454 -2.271,0.562 -1.828,0.255 -3.29,-0.465 -4.418,-1.876 -1.151,-1.439 -1.601,-3.126 -1.666,-4.942 -0.069,-1.931 0.385,-3.738 1.224,-5.462 0.673,-1.381 1.48,-2.678 2.469,-3.853 0.272,-0.323 0.59,-0.618 0.925,-0.875 0.878,-0.676 1.82,-0.756 2.813,-0.239 0.778,0.404 1.623,0.587 2.491,0.624 C -4.375,1.344 -3.47,1.175 -2.635,0.688 -2.068,0.359 -1.483,0.049 -0.809,0.003 -0.541,-0.015 -0.269,0 0,0"
             style="fill:#ffffff;fill-opacity:1;fill-rule:nonzero;stroke:none"
             id="path26" /></g><g
           id="g28"
           transform="translate(11.3867,21.9243)"><path
             d="M 0,0 C 0.131,0.069 0.257,0.154 0.396,0.205 1.54,0.625 2.501,1.273 3.126,2.353 3.502,3 3.695,3.708 3.802,4.44 3.843,4.711 3.69,4.818 3.427,4.723 1.469,4.024 0.293,2.636 -0.189,0.63 -0.216,0.517 -0.272,0.409 -0.313,0.299 -0.352,0.297 -0.389,0.294 -0.427,0.291 -0.47,0.418 -0.542,0.543 -0.552,0.671 -0.714,2.778 0.212,4.812 2.22,5.804 2.9,6.141 3.663,6.311 4.39,6.55 4.638,6.632 4.891,6.705 5.146,6.76 5.341,6.802 5.442,6.713 5.446,6.5 5.474,5.133 5.407,3.783 4.778,2.53 4.042,1.063 2.872,0.173 1.247,-0.101 1.009,-0.141 0.769,-0.175 0.528,-0.189 0.365,-0.197 0.2,-0.166 0.036,-0.152 Z"
             style="fill:#ffffff;fill-opacity:1;fill-rule:nonzero;stroke:none"
             id="path30" /></g><g
           id="g32"
           transform="translate(45.5654,12.8037)"><path
             d="M 0,0 C 0.046,2.67 2.784,4.554 5.283,3.625 6.031,3.348 6.645,2.912 7.099,2.26 7.354,1.893 7.319,1.636 7.021,1.377 6.729,1.123 6.436,1.16 6.095,1.436 5.699,1.758 5.311,2.116 4.858,2.337 3.418,3.044 1.454,1.89 1.372,0.086 c -0.09,-1.983 1.926,-3.337 3.711,-2.47 0.352,0.171 0.637,0.482 0.946,0.737 0.387,0.321 0.622,0.335 0.932,0.043 C 7.247,-1.875 7.256,-2.188 6.959,-2.555 6.121,-3.587 5.013,-4.058 3.706,-3.958 1.97,-3.826 0.811,-2.876 0.224,-1.252 0.083,-0.858 0.071,-0.419 0,0"
             style="fill:#ffffff;fill-opacity:1;fill-rule:nonzero;stroke:none"
             id="path34" /></g><g
           id="g36"
           transform="translate(51.7949,13.3799)"><path
             d="M 0,0 C 0.493,0 0.985,-0.026 1.479,-0.041 1.646,-0.046 1.838,-0.073 1.969,-0.162 2.175,-0.303 2.375,-0.5 2.304,-0.791 2.233,-1.076 2.05,-1.281 1.749,-1.343 1.626,-1.368 1.497,-1.375 1.372,-1.372 c -0.931,0.016 -1.861,0.036 -2.793,0.058 -0.102,0.002 -0.207,0.01 -0.308,0.034 -0.33,0.075 -0.587,0.398 -0.559,0.69 0.029,0.298 0.331,0.584 0.663,0.592 0.54,0.013 1.08,0.003 1.621,0.003 C -0.004,-0.008 0,0.014 0,0"
             style="fill:#ffffff;fill-opacity:1;fill-rule:nonzero;stroke:none"
             id="path38" /></g><g
           id="g40"
           transform="translate(22.2915,8.9082)"><path
             d="m 0,0 c 0,-0.302 -0.061,-0.693 -0.182,-1.174 -0.122,-0.481 -0.355,-0.978 -0.699,-1.493 -0.344,-0.513 -0.872,-0.956 -1.583,-1.328 -0.712,-0.373 -1.606,-0.559 -2.682,-0.559 -1.331,0 -2.429,0.202 -3.295,0.608 l 0.462,1.52 c 1.03,-0.302 1.975,-0.453 2.833,-0.453 0.669,0 1.247,0.12 1.732,0.361 0.485,0.241 0.859,0.58 1.122,1.016 0.262,0.437 0.393,0.938 0.393,1.502 v 4.236 c 0,0.521 -0.08,1.006 -0.241,1.459 -0.16,0.452 -0.376,0.83 -0.644,1.131 -0.269,0.302 -0.583,0.534 -0.94,0.698 -0.358,0.164 -0.729,0.246 -1.116,0.246 -0.912,0 -1.687,-0.287 -2.327,-0.862 -0.64,-0.575 -0.959,-1.465 -0.959,-2.672 0,-0.507 0.132,-0.98 0.398,-1.42 0.266,-0.44 0.65,-0.793 1.151,-1.058 0.502,-0.268 1.08,-0.4 1.737,-0.4 0.898,0 1.672,0.256 2.321,0.771 V 0.298 c -0.302,-0.218 -0.65,-0.371 -1.047,-0.461 -0.397,-0.091 -0.875,-0.136 -1.432,-0.136 -0.806,0 -1.52,0.131 -2.14,0.391 -0.619,0.26 -1.124,0.609 -1.514,1.049 -0.391,0.44 -0.686,0.959 -0.887,1.555 -0.199,0.597 -0.299,1.216 -0.299,1.859 0,0.86 0.163,1.609 0.487,2.248 0.324,0.638 0.741,1.148 1.249,1.53 0.509,0.381 1.05,0.663 1.623,0.842 0.575,0.18 1.12,0.27 1.639,0.27 0.826,0 1.611,-0.189 2.356,-0.569 C -1.74,8.498 -1.14,7.973 -0.684,7.303 -0.228,6.632 0,5.88 0,5.045 Z"
             style="fill:#f47f20;fill-opacity:1;fill-rule:nonzero;stroke:none"
             id="path42" /></g><g
           id="g44"
           transform="translate(33.458,8.9082)"><path
             d="M 0,0 H -1.899 V 5.344 C -1.899,5.773 -2,6.173 -2.205,6.542 -2.408,6.911 -2.741,7.208 -3.203,7.432 -3.665,7.658 -4.264,7.77 -4.999,7.77 -5.392,7.77 -5.821,7.676 -6.287,7.486 -6.752,7.297 -7.164,6.974 -7.522,6.518 -7.879,6.062 -8.081,5.456 -8.127,4.698 c 0,-1.052 0.326,-1.844 0.979,-2.378 0.653,-0.533 1.422,-0.799 2.308,-0.799 0.432,0 0.82,0.097 1.165,0.29 0.344,0.192 0.73,0.496 1.156,0.915 v -2.11 c -0.348,-0.263 -0.71,-0.457 -1.087,-0.583 -0.377,-0.125 -0.891,-0.187 -1.54,-0.187 -0.793,0 -1.552,0.198 -2.277,0.592 -0.725,0.395 -1.308,0.961 -1.751,1.699 -0.443,0.739 -0.665,1.592 -0.665,2.561 0,0.886 0.193,1.69 0.576,2.412 0.384,0.722 0.951,1.292 1.702,1.709 0.751,0.418 1.658,0.626 2.721,0.626 0.977,0 1.837,-0.187 2.582,-0.563 C -1.514,8.506 -0.951,8.019 -0.571,7.418 -0.191,6.818 0,6.178 0,5.497 Z"
             style="fill:#f47f20;fill-opacity:1;fill-rule:nonzero;stroke:none"
             id="path46" /></g><g
           id="g48"
           transform="translate(44.5635,13.6069)"><path
             d="m 0,0 c 0,-0.61 -0.149,-1.303 -0.452,-2.081 -0.303,-0.775 -0.819,-1.457 -1.552,-2.04 -0.732,-0.584 -1.685,-0.876 -2.86,-0.876 -1.11,0 -2.027,0.231 -2.753,0.694 -0.725,0.462 -1.255,1.053 -1.59,1.776 -0.335,0.722 -0.502,1.465 -0.502,2.229 0,0.795 0.133,1.506 0.399,2.132 0.266,0.626 0.616,1.143 1.049,1.55 0.433,0.407 0.905,0.711 1.413,0.91 0.51,0.199 1.003,0.298 1.483,0.298 0.788,0 1.384,-0.052 1.788,-0.159 0.404,-0.105 0.757,-0.258 1.058,-0.457 v -1.81 c -0.294,0.186 -0.691,0.358 -1.189,0.515 -0.499,0.157 -0.984,0.236 -1.457,0.236 -0.76,0 -1.422,-0.304 -1.986,-0.91 -0.564,-0.607 -0.847,-1.43 -0.847,-2.469 0,-1.129 0.34,-1.892 1.019,-2.287 0.679,-0.395 1.437,-0.591 2.277,-0.591 0.951,0 1.653,0.367 2.105,1.101 0.453,0.736 0.679,1.697 0.679,2.885 V 8.732 H 0 Z"
             style="fill:#f47f20;fill-opacity:1;fill-rule:nonzero;stroke:none"
             id="path50" /></g><g
           id="g52"
           transform="translate(64.9092,13.0107)"><path
             d="M 0,0 C 0,-0.617 -0.169,-1.266 -0.507,-1.946 -0.845,-2.626 -1.38,-3.205 -2.11,-3.684 -2.842,-4.162 -3.755,-4.4 -4.851,-4.4 c -0.918,0 -1.762,0.203 -2.532,0.611 -0.772,0.407 -1.375,0.968 -1.811,1.68 -0.437,0.712 -0.654,1.515 -0.654,2.407 0,1.11 0.251,2.044 0.752,2.801 0.502,0.758 1.137,1.32 1.905,1.691 0.767,0.368 1.546,0.552 2.34,0.552 0.69,0 1.33,-0.132 1.924,-0.394 0.594,-0.263 1.117,-0.62 1.57,-1.069 0.452,-0.45 0.851,-0.972 1.2,-1.569 l -6.591,-3.534 -0.769,1.358 4.683,2.628 c -0.111,0.122 -0.24,0.256 -0.389,0.4 -0.147,0.144 -0.348,0.265 -0.604,0.361 -0.255,0.096 -0.597,0.144 -1.024,0.144 -0.655,0 -1.22,-0.158 -1.696,-0.472 C -7.022,2.881 -7.38,2.469 -7.619,1.959 -7.858,1.448 -7.979,0.895 -7.979,0.298 c 0,-0.521 0.121,-1.013 0.36,-1.479 0.239,-0.465 0.597,-0.842 1.072,-1.131 0.476,-0.289 1.041,-0.432 1.696,-0.432 0.532,0 0.974,0.063 1.33,0.192 0.353,0.128 0.638,0.313 0.855,0.553 0.217,0.241 0.393,0.535 0.53,0.882 0.139,0.346 0.267,0.763 0.385,1.251 z"
             style="fill:#f47f20;fill-opacity:1;fill-rule:nonzero;stroke:none"
             id="path54" /></g><g
           id="g56"
           transform="translate(71.7656,16.5244)"><path
             d="m 0,0 h -3.609 v -4.737 c 0,-0.405 0.066,-0.706 0.201,-0.906 0.134,-0.199 0.477,-0.297 1.027,-0.297 h 2.214 v -1.676 h -2.351 c -0.656,0 -1.204,0.142 -1.643,0.429 -0.439,0.286 -0.766,0.659 -0.979,1.122 -0.214,0.461 -0.32,0.955 -0.32,1.482 v 8.559 h 1.851 V 1.675 l 3.609,0 z"
             style="fill:#f47f20;fill-opacity:1;fill-rule:nonzero;stroke:none"
             id="path58" /></g><g
           id="g60"
           transform="translate(80.4824,11.335)"><path
             d="m 0,0 c 0,-1.644 -1.06,-2.465 -3.178,-2.465 -0.092,0 -0.222,0.006 -0.393,0.019 -0.171,0.013 -0.283,0.019 -0.334,0.019 h -3.887 v 1.676 h 4.034 c 0.072,0 0.177,-0.007 0.316,-0.02 0.136,-0.012 0.239,-0.018 0.303,-0.018 0.374,0 0.679,0.054 0.915,0.163 0.237,0.109 0.355,0.318 0.355,0.626 0,0.404 -0.241,0.712 -0.723,0.924 -0.482,0.212 -1.28,0.462 -2.395,0.752 -0.617,0.166 -1.126,0.367 -1.532,0.6 -0.402,0.235 -0.715,0.529 -0.938,0.881 -0.224,0.353 -0.335,0.78 -0.335,1.281 0,0.514 0.096,0.934 0.286,1.261 0.19,0.328 0.449,0.572 0.777,0.732 0.328,0.161 0.714,0.273 1.161,0.337 0.445,0.064 0.948,0.096 1.506,0.096 h 3.599 V 5.343 h -3.766 c -1.128,0 -1.694,-0.25 -1.694,-0.75 0,-0.316 0.147,-0.565 0.439,-0.747 C -5.192,3.664 -4.837,3.517 -4.418,3.408 -3.997,3.299 -3.558,3.186 -3.099,3.07 -1.932,2.673 -1.123,2.254 -0.674,1.814 -0.225,1.375 0,0.77 0,0"
             style="fill:#f47f20;fill-opacity:1;fill-rule:nonzero;stroke:none"
             id="path62" /></g><g
           id="g64"
           transform="translate(80.9854,19.5059)"><path
             d="M 0,0 H -0.793 V 0.286 H 1.136 V 0 H 0.34 V -2.318 H 0 Z"
             style="fill:#ffffff;fill-opacity:1;fill-rule:nonzero;stroke:none"
             id="path66" /></g><g
           id="g68"
           transform="translate(84.6055,18.3311)"><path
             d="M 0,0 C -0.019,0.363 -0.042,0.8 -0.038,1.125 H -0.05 C -0.139,0.819 -0.247,0.495 -0.378,0.135 l -0.46,-1.263 h -0.255 l -0.422,1.24 c -0.123,0.367 -0.227,0.703 -0.3,1.013 H -1.823 C -1.831,0.8 -1.851,0.363 -1.874,-0.027 l -0.069,-1.117 h -0.321 l 0.182,2.604 h 0.429 l 0.444,-1.259 c 0.108,-0.321 0.197,-0.607 0.263,-0.877 h 0.011 c 0.066,0.262 0.159,0.549 0.275,0.877 L -0.196,1.46 H 0.232 L 0.395,-1.144 H 0.066 Z"
             style="fill:#ffffff;fill-opacity:1;fill-rule:nonzero;stroke:none"
             id="path70" /></g></g></g></g></svg>
